<?xml version="1.0" encoding="UTF-8"?>
<svg id="Layer_3" xmlns="http://www.w3.org/2000/svg" version="1.1" viewBox="0 0 373.45 373.45">
  <!-- Generator: Adobe Illustrator 29.7.1, SVG Export Plug-In . SVG Version: 2.1.1 Build 8)  -->
  <defs>
    <style>
      .st0 {
        fill: #155c64;
      }
    </style>
  </defs>
  <g id="Layer_1">
    <g>
      <path class="st0" d="M219.54,59.25c.14-.32.23-.52.23-.52h-.02c4.4-10.59,9.51-26.61,4.28-38.98C218.87,7.55,194.09,0,194.09,0c6.61,6.09,10.51,10.98,11.48,20.36.61,5.86-10.38,32.14-14.04,40.69-.32.72-.62,1.42-.95,2.22-.14.33-.24.54-.24.54h.02c-4.4,10.59-9.51,26.61-4.28,38.98,5.16,12.2,29.95,19.75,29.95,19.75-6.61-6.09-10.51-10.98-11.48-20.36-.61-5.85,10.34-32.04,14.02-40.64.33-.74.64-1.46.98-2.28h-.01Z"/>
      <path class="st0" d="M174.4,64.8c.11-.24.17-.4.17-.4h-.01c3.35-8.07,7.25-20.28,3.26-29.71-3.93-9.29-22.82-15.05-22.82-15.05,5.04,4.64,8.01,8.37,8.75,15.52.46,4.47-7.91,24.49-10.7,31.01-.24.55-.47,1.08-.73,1.69-.11.25-.18.41-.18.41h.01c-3.35,8.07-7.25,20.28-3.26,29.71,3.93,9.29,22.82,15.05,22.82,15.05-5.04-4.64-8.01-8.37-8.75-15.52-.46-4.46,7.88-24.42,10.69-30.97.25-.57.49-1.12.75-1.74Z"/>
      <path class="st0" d="M186.73,136.26c-65.5,0-118.6,53.1-118.6,118.6s53.1,118.6,118.6,118.6,118.6-53.1,118.6-118.6-53.1-118.6-118.6-118.6h0ZM186.73,329.58c-49.53,0-89.68-10.25-89.68-59.78s40.15-89.68,89.68-89.68,89.68,40.15,89.68,89.68-40.15,59.78-89.68,59.78Z"/>
    </g>
  </g>
</svg>